<?xml version="1.0" encoding="UTF-8" standalone="no"?>
<svg
   width="1920"
   height="1080"
   viewBox="0 0 1920 1080"
   fill="none"
   version="1.1"
   id="svg3"
   sodipodi:docname="bg-cover.svg"
   xml:space="preserve"
   inkscape:version="1.3.2 (091e20ef0f, 2023-11-25, custom)"
   xmlns:inkscape="http://www.inkscape.org/namespaces/inkscape"
   xmlns:sodipodi="http://sodipodi.sourceforge.net/DTD/sodipodi-0.dtd"
   xmlns:xlink="http://www.w3.org/1999/xlink"
   xmlns="http://www.w3.org/2000/svg"
   xmlns:svg="http://www.w3.org/2000/svg"><sodipodi:namedview
     id="namedview3"
     pagecolor="#ffffff"
     bordercolor="#000000"
     borderopacity="0.25"
     inkscape:showpageshadow="2"
     inkscape:pageopacity="0.0"
     inkscape:pagecheckerboard="0"
     inkscape:deskcolor="#d1d1d1"
     inkscape:zoom="0.62551019"
     inkscape:cx="953.62155"
     inkscape:cy="496.39479"
     inkscape:window-width="1920"
     inkscape:window-height="1006"
     inkscape:window-x="0"
     inkscape:window-y="0"
     inkscape:window-maximized="1"
     inkscape:current-layer="svg3" /><defs
     id="defs3"><clipPath
       clipPathUnits="userSpaceOnUse"
       id="clipPath4"><g
         id="g5"><rect
           width="980"
           height="551"
           fill="#ffffff"
           id="rect4"
           x="92.679352"
           y="25.609539" /></g></clipPath><clipPath
       clipPathUnits="userSpaceOnUse"
       id="clipPath5"><g
         id="g6"><rect
           width="980"
           height="551"
           fill="#ffffff"
           id="rect5"
           x="92.679352"
           y="25.609539" /></g></clipPath><clipPath
       clipPathUnits="userSpaceOnUse"
       id="clipPath6"><g
         id="g7"><rect
           width="980"
           height="551"
           fill="#ffffff"
           id="rect6"
           x="92.679352"
           y="25.609539" /></g></clipPath><filter
       inkscape:label="Cubes"
       inkscape:menu="Scatter"
       inkscape:menu-tooltip="Scattered cubes; adjust the Morphology primitive to vary size"
       style="color-interpolation-filters:sRGB;"
       id="filter57"
       x="-0.0057940714"
       y="-0.0022381327"
       width="1.0115881"
       height="1.0044763"><feTurbulence
         baseFrequency="0.14"
         numOctaves="1"
         type="fractalNoise"
         id="feTurbulence56" /><feColorMatrix
         values="1 0 0 0 0 0 1 0 0 0 0 0 1 0 0 0 0 0 6 -3.5 "
         result="result5"
         id="feColorMatrix56" /><feComposite
         in2="result5"
         operator="in"
         in="SourceGraphic"
         result="result6"
         id="feComposite56" /><feMorphology
         result="result3"
         radius="5"
         operator="dilate"
         in="result6"
         id="feMorphology56" /><feDisplacementMap
         result="result4"
         scale="0"
         yChannelSelector="A"
         xChannelSelector="R"
         in="result3"
         in2="result3"
         id="feDisplacementMap56" /><feComposite
         in2="result4"
         operator="arithmetic"
         result="result2"
         k1="1"
         k3="1"
         id="feComposite57" /><feBlend
         mode="darken"
         in="result2"
         in2="result2"
         id="feBlend57" /><feConvolveMatrix
         order="3 3"
         kernelMatrix="2 0 0 0 1 0 0 0 -1 "
         targetX="1"
         targetY="1"
         divisor="2"
         edgeMode="duplicate"
         id="feConvolveMatrix57" /></filter><filter
       inkscape:label="Cubes"
       inkscape:menu="Scatter"
       inkscape:menu-tooltip="Scattered cubes; adjust the Morphology primitive to vary size"
       style="color-interpolation-filters:sRGB;"
       id="filter59"
       x="-0.0092778383"
       y="-0.011777759"
       width="1.0185557"
       height="1.0235555"><feTurbulence
         baseFrequency="0.14"
         numOctaves="1"
         type="fractalNoise"
         id="feTurbulence57" /><feColorMatrix
         values="1 0 0 0 0 0 1 0 0 0 0 0 1 0 0 0 0 0 6 -3.5 "
         result="result5"
         id="feColorMatrix57" /><feComposite
         in2="result5"
         operator="in"
         in="SourceGraphic"
         result="result6"
         id="feComposite58" /><feMorphology
         result="result3"
         radius="5"
         operator="dilate"
         in="result6"
         id="feMorphology58" /><feDisplacementMap
         result="result4"
         scale="0"
         yChannelSelector="A"
         xChannelSelector="R"
         in="result3"
         in2="result3"
         id="feDisplacementMap58" /><feComposite
         in2="result4"
         operator="arithmetic"
         result="result2"
         k1="1"
         k3="1"
         id="feComposite59" /><feBlend
         mode="darken"
         in="result2"
         in2="result2"
         id="feBlend59" /><feConvolveMatrix
         order="3 3"
         kernelMatrix="2 0 0 0 1 0 0 0 -1 "
         targetX="1"
         targetY="1"
         divisor="2"
         edgeMode="duplicate"
         id="feConvolveMatrix59" /></filter><filter
       style="color-interpolation-filters:sRGB;"
       inkscape:label="Drop Shadow"
       id="filter175"
       x="-0.13127859"
       y="-1.1814694"
       width="1.2625572"
       height="3.3629387"><feFlood
         result="flood"
         in="SourceGraphic"
         flood-opacity="0.121569"
         flood-color="rgb(0,0,0)"
         id="feFlood174" /><feGaussianBlur
         result="blur"
         in="SourceGraphic"
         stdDeviation="134.570465"
         id="feGaussianBlur174" /><feOffset
         result="offset"
         in="blur"
         dx="0.000000"
         dy="0.000000"
         id="feOffset174" /><feComposite
         result="comp1"
         operator="in"
         in="flood"
         in2="offset"
         id="feComposite174" /><feComposite
         result="comp2"
         operator="over"
         in="SourceGraphic"
         in2="comp1"
         id="feComposite175" /></filter><filter
       style="color-interpolation-filters:sRGB"
       inkscape:label="Drop Shadow"
       id="filter175-3"
       x="-0.13127859"
       y="-1.1814694"
       width="1.2625572"
       height="3.3629387"><feFlood
         result="flood"
         in="SourceGraphic"
         flood-opacity="0.121569"
         flood-color="rgb(0,0,0)"
         id="feFlood174-6" /><feGaussianBlur
         result="blur"
         in="SourceGraphic"
         stdDeviation="134.570465"
         id="feGaussianBlur174-7" /><feOffset
         result="offset"
         in="blur"
         dx="0.000000"
         dy="0.000000"
         id="feOffset174-5" /><feComposite
         result="comp1"
         operator="in"
         in="flood"
         in2="offset"
         id="feComposite174-3" /><feComposite
         result="comp2"
         operator="over"
         in="SourceGraphic"
         in2="comp1"
         id="feComposite175-5" /></filter><filter
       style="color-interpolation-filters:sRGB;"
       inkscape:label="Drop Shadow"
       id="filter209"
       x="-0.10059583"
       y="-34.55923"
       width="1.2011917"
       height="70.118461"><feFlood
         result="flood"
         in="SourceGraphic"
         flood-opacity="1.000000"
         flood-color="rgb(0,0,0)"
         id="feFlood208" /><feGaussianBlur
         result="blur"
         in="SourceGraphic"
         stdDeviation="171.983292"
         id="feGaussianBlur208" /><feOffset
         result="offset"
         in="blur"
         dx="0.000000"
         dy="0.000000"
         id="feOffset208" /><feComposite
         result="comp1"
         operator="in"
         in="flood"
         in2="offset"
         id="feComposite208" /><feComposite
         result="comp2"
         operator="over"
         in="SourceGraphic"
         in2="comp1"
         id="feComposite209" /></filter><filter
       style="color-interpolation-filters:sRGB;"
       inkscape:label="Drop Shadow"
       id="filter257"
       x="-0.013670984"
       y="-0.025077645"
       width="1.0337562"
       height="1.0626861"><feFlood
         result="flood"
         in="SourceGraphic"
         flood-opacity="1.000000"
         flood-color="rgb(0,0,0)"
         id="feFlood256" /><feGaussianBlur
         result="blur"
         in="SourceGraphic"
         stdDeviation="10.683372"
         id="feGaussianBlur256" /><feOffset
         result="offset"
         in="blur"
         dx="12.030010"
         dy="12.811828"
         id="feOffset256" /><feComposite
         result="comp1"
         operator="in"
         in="flood"
         in2="offset"
         id="feComposite256" /><feComposite
         result="comp2"
         operator="over"
         in="SourceGraphic"
         in2="comp1"
         id="feComposite257" /></filter><clipPath
       clipPathUnits="userSpaceOnUse"
       id="clipPath259"><rect
         style="opacity:1;fill:#000080;stroke-width:0;stroke-miterlimit:1.4"
         id="rect259"
         width="1914.7343"
         height="1055.0447"
         x="0.20537071"
         y="-0.4226099" /></clipPath><clipPath
       clipPathUnits="userSpaceOnUse"
       id="clipPath3"><path
         d="M 0,250 H 216 V 0 H 0 Z"
         transform="translate(-181.4131,-61.054699)"
         id="path3" /></clipPath><clipPath
       clipPathUnits="userSpaceOnUse"
       id="clipPath5-5"><path
         d="M 0,250 H 216 V 0 H 0 Z"
         transform="translate(-74.525902,-75.082999)"
         id="path5" /></clipPath><clipPath
       clipPathUnits="userSpaceOnUse"
       id="clipPath7"><path
         d="M 0,250 H 216 V 0 H 0 Z"
         transform="translate(-79.779804,-72.593704)"
         id="path7" /></clipPath><clipPath
       clipPathUnits="userSpaceOnUse"
       id="clipPath9"><path
         d="M 0,250 H 216 V 0 H 0 Z"
         transform="translate(-88.500505,-76.547899)"
         id="path9" /></clipPath><clipPath
       clipPathUnits="userSpaceOnUse"
       id="clipPath11"><path
         d="M 0,250 H 216 V 0 H 0 Z"
         transform="translate(-105.4917,-78.122104)"
         id="path11" /></clipPath><clipPath
       clipPathUnits="userSpaceOnUse"
       id="clipPath13"><path
         d="M 0,250 H 216 V 0 H 0 Z"
         transform="translate(-117.7515,-72.593704)"
         id="path13" /></clipPath><clipPath
       clipPathUnits="userSpaceOnUse"
       id="clipPath15"><path
         d="M 0,250 H 216 V 0 H 0 Z"
         transform="translate(-126.8848,-81.554705)"
         id="path15" /></clipPath><clipPath
       clipPathUnits="userSpaceOnUse"
       id="clipPath17"><path
         d="M 0,250 H 216 V 0 H 0 Z"
         id="path17" /></clipPath><clipPath
       clipPathUnits="userSpaceOnUse"
       id="clipPath19"><path
         d="M 0,250 H 216 V 0 H 0 Z"
         transform="translate(-142.74801,-76.547899)"
         id="path19" /></clipPath><clipPath
       clipPathUnits="userSpaceOnUse"
       id="clipPath21"><path
         d="M 0,250 H 216 V 0 H 0 Z"
         transform="translate(-117.2017,-210.50001)"
         id="path21" /></clipPath><clipPath
       clipPathUnits="userSpaceOnUse"
       id="clipPath23"><path
         d="M 0,250 H 216 V 0 H 0 Z"
         transform="translate(-138.59181,-210.50001)"
         id="path23" /></clipPath><clipPath
       clipPathUnits="userSpaceOnUse"
       id="clipPath25"><path
         d="M 0,250 H 216 V 0 H 0 Z"
         transform="translate(-138.59181,-167.7178)"
         id="path25" /></clipPath><clipPath
       clipPathUnits="userSpaceOnUse"
       id="clipPath27"><path
         d="M 0,250 H 216 V 0 H 0 Z"
         transform="translate(-95.8096,-189.124)"
         id="path27" /></clipPath><clipPath
       clipPathUnits="userSpaceOnUse"
       id="clipPath29"><path
         d="M 0,250 H 216 V 0 H 0 Z"
         transform="translate(-117.2017,-189.124)"
         id="path29" /></clipPath><clipPath
       clipPathUnits="userSpaceOnUse"
       id="clipPath31"><path
         d="M 0,250 H 216 V 0 H 0 Z"
         transform="translate(-95.8096,-167.7178)"
         id="path31" /></clipPath><clipPath
       clipPathUnits="userSpaceOnUse"
       id="clipPath33"><path
         d="M 0,250 H 216 V 0 H 0 Z"
         transform="translate(-117.2017,-167.7178)"
         id="path33" /></clipPath><clipPath
       clipPathUnits="userSpaceOnUse"
       id="clipPath35"><path
         d="M 0,250 H 216 V 0 H 0 Z"
         transform="translate(-95.8096,-146.3057)"
         id="path35" /></clipPath><clipPath
       clipPathUnits="userSpaceOnUse"
       id="clipPath37"><path
         d="M 0,250 H 216 V 0 H 0 Z"
         transform="translate(-117.2017,-146.3057)"
         id="path37" /></clipPath><clipPath
       clipPathUnits="userSpaceOnUse"
       id="clipPath39"><path
         d="M 0,250 H 216 V 0 H 0 Z"
         transform="translate(-96.700202,-217.67771)"
         id="path39" /></clipPath><clipPath
       clipPathUnits="userSpaceOnUse"
       id="clipPath41"><path
         d="M 0,250 H 216 V 0 H 0 Z"
         id="path41" /></clipPath><clipPath
       clipPathUnits="userSpaceOnUse"
       id="clipPath43"><path
         d="M 0,250 H 216 V 0 H 0 Z"
         transform="translate(-67.744102,-114.3643)"
         id="path43" /></clipPath><clipPath
       clipPathUnits="userSpaceOnUse"
       id="clipPath45"><path
         d="M 0,250 H 216 V 0 H 0 Z"
         transform="translate(-82.7524,-119.2891)"
         id="path45" /></clipPath><clipPath
       clipPathUnits="userSpaceOnUse"
       id="clipPath47"><path
         d="M 0,250 H 216 V 0 H 0 Z"
         transform="translate(-92.880902,-114.3643)"
         id="path47" /></clipPath><clipPath
       clipPathUnits="userSpaceOnUse"
       id="clipPath49"><path
         d="M 0,250 H 216 V 0 H 0 Z"
         id="path49" /></clipPath><clipPath
       clipPathUnits="userSpaceOnUse"
       id="clipPath51"><path
         d="M 0,250 H 216 V 0 H 0 Z"
         transform="translate(-115.5313,-114.3643)"
         id="path51" /></clipPath><clipPath
       clipPathUnits="userSpaceOnUse"
       id="clipPath53"><path
         d="M 0,250 H 216 V 0 H 0 Z"
         transform="translate(-137.6196,-132.09961)"
         id="path53" /></clipPath><clipPath
       clipPathUnits="userSpaceOnUse"
       id="clipPath55"><path
         d="M 0,250 H 216 V 0 H 0 Z"
         transform="translate(-148.87701,-114.3643)"
         id="path55" /></clipPath><clipPath
       clipPathUnits="userSpaceOnUse"
       id="clipPath57"><path
         d="M 0,250 H 216 V 0 H 0 Z"
         transform="translate(-159.6162,-123.25591)"
         id="path57" /></clipPath><clipPath
       clipPathUnits="userSpaceOnUse"
       id="clipPath59"><path
         d="M 0,250 H 216 V 0 H 0 Z"
         transform="translate(-59.796401,-93.0488)"
         id="path59" /></clipPath><clipPath
       clipPathUnits="userSpaceOnUse"
       id="clipPath61"><path
         d="M 0,250 H 216 V 0 H 0 Z"
         transform="translate(-80.032705,-93.0488)"
         id="path61" /></clipPath><clipPath
       clipPathUnits="userSpaceOnUse"
       id="clipPath63"><path
         d="M 0,250 H 216 V 0 H 0 Z"
         transform="translate(-94.565905,-101.9893)"
         id="path63" /></clipPath><clipPath
       clipPathUnits="userSpaceOnUse"
       id="clipPath65"><path
         d="M 0,250 H 216 V 0 H 0 Z"
         transform="translate(-112.3926,-93.0488)"
         id="path65" /></clipPath><clipPath
       clipPathUnits="userSpaceOnUse"
       id="clipPath67"><path
         d="M 0,250 H 216 V 0 H 0 Z"
         transform="translate(-119.8657,-102.91111)"
         id="path67" /></clipPath><clipPath
       clipPathUnits="userSpaceOnUse"
       id="clipPath69"><path
         d="M 0,250 H 216 V 0 H 0 Z"
         transform="translate(-141.30471,-100.42381)"
         id="path69" /></clipPath><clipPath
       clipPathUnits="userSpaceOnUse"
       id="clipPath71"><path
         d="M 0,250 H 216 V 0 H 0 Z"
         transform="translate(-149.83791,-93.0488)"
         id="path71" /></clipPath><clipPath
       clipPathUnits="userSpaceOnUse"
       id="clipPath73"><path
         d="M 0,250 H 216 V 0 H 0 Z"
         transform="translate(-79.994102,-52.269499)"
         id="path73" /></clipPath><clipPath
       clipPathUnits="userSpaceOnUse"
       id="clipPath75"><path
         d="M 0,250 H 216 V 0 H 0 Z"
         transform="translate(-88.613305,-41.157199)"
         id="path75" /></clipPath><clipPath
       clipPathUnits="userSpaceOnUse"
       id="clipPath77"><path
         d="M 0,250 H 216 V 0 H 0 Z"
         transform="translate(-109.126,-40.085899)"
         id="path77" /></clipPath><clipPath
       clipPathUnits="userSpaceOnUse"
       id="clipPath79"><path
         d="M 0,250 H 216 V 0 H 0 Z"
         transform="translate(-118.24071,-49.010704)"
         id="path79" /></clipPath><clipPath
       clipPathUnits="userSpaceOnUse"
       id="clipPath81"><path
         d="M 0,250 H 216 V 0 H 0 Z"
         transform="translate(-126.7227,-50.118199)"
         id="path81" /></clipPath><clipPath
       clipPathUnits="userSpaceOnUse"
       id="clipPath83"><path
         d="M 0,250 H 216 V 0 H 0 Z"
         transform="translate(-143.3008,-42.823204)"
         id="path83" /></clipPath><clipPath
       clipPathUnits="userSpaceOnUse"
       id="clipPath85"><path
         d="M 0,250 H 216 V 0 H 0 Z"
         id="path85" /></clipPath><clipPath
       clipPathUnits="userSpaceOnUse"
       id="clipPath87"><path
         d="M 0,250 H 216 V 0 H 0 Z"
         transform="translate(-65.634802,-19.7617)"
         id="path87" /></clipPath><clipPath
       clipPathUnits="userSpaceOnUse"
       id="clipPath89"><path
         d="M 0,250 H 216 V 0 H 0 Z"
         transform="translate(-71.849602,-19.7617)"
         id="path89" /></clipPath><clipPath
       clipPathUnits="userSpaceOnUse"
       id="clipPath91"><path
         d="M 0,250 H 216 V 0 H 0 Z"
         transform="translate(-84.186505,-27.730503)"
         id="path91" /></clipPath><clipPath
       clipPathUnits="userSpaceOnUse"
       id="clipPath93"><path
         d="M 0,250 H 216 V 0 H 0 Z"
         transform="translate(-95.23,-27.748998)"
         id="path93" /></clipPath><clipPath
       clipPathUnits="userSpaceOnUse"
       id="clipPath95"><path
         d="M 0,250 H 216 V 0 H 0 Z"
         transform="translate(-105.3252,-19.7617)"
         id="path95" /></clipPath><clipPath
       clipPathUnits="userSpaceOnUse"
       id="clipPath97"><path
         d="M 0,250 H 216 V 0 H 0 Z"
         id="path97" /></clipPath><clipPath
       clipPathUnits="userSpaceOnUse"
       id="clipPath99"><path
         d="M 0,250 H 216 V 0 H 0 Z"
         transform="translate(-120.55521,-18.6748)"
         id="path99" /></clipPath><clipPath
       clipPathUnits="userSpaceOnUse"
       id="clipPath101"><path
         d="M 0,250 H 216 V 0 H 0 Z"
         id="path101" /></clipPath><clipPath
       clipPathUnits="userSpaceOnUse"
       id="clipPath103"><path
         d="M 0,250 H 216 V 0 H 0 Z"
         transform="translate(-137.06931,-18.6748)"
         id="path103" /></clipPath><clipPath
       clipPathUnits="userSpaceOnUse"
       id="clipPath105"><path
         d="M 0,250 H 216 V 0 H 0 Z"
         transform="translate(-142.8379,-25.594698)"
         id="path105" /></clipPath><clipPath
       clipPathUnits="userSpaceOnUse"
       id="clipPath107"><path
         d="M 0,250 H 216 V 0 H 0 Z"
         transform="translate(-155.00781,-19.7617)"
         id="path107" /></clipPath><linearGradient
       inkscape:collect="always"
       xlink:href="#linearGradient209"
       id="linearGradient210"
       x1="362.90259"
       y1="-247.3689"
       x2="1691.1459"
       y2="1154.8903"
       gradientUnits="userSpaceOnUse"
       gradientTransform="translate(-11.053053,-23.812623)" /><linearGradient
       id="linearGradient209"
       inkscape:collect="always"><stop
         style="stop-color:#e6e6e6;stop-opacity:1"
         offset="0"
         id="stop209" /><stop
         style="stop-color:#ffffff;stop-opacity:1"
         offset="0.09608211"
         id="stop211" /><stop
         style="stop-color:#ececec;stop-opacity:1"
         offset="0.33563873"
         id="stop212" /><stop
         style="stop-color:#ffffff;stop-opacity:1"
         offset="0.55887294"
         id="stop213" /><stop
         style="stop-color:#f9f9f9;stop-opacity:0;"
         offset="1"
         id="stop210" /></linearGradient><clipPath
       clipPathUnits="userSpaceOnUse"
       id="clipPath259-2"><rect
         style="opacity:1;fill:#000080;stroke-width:0;stroke-miterlimit:1.4"
         id="rect259-2"
         width="1914.7343"
         height="1055.0447"
         x="0.20537071"
         y="-0.4226099" /></clipPath><filter
       style="color-interpolation-filters:sRGB"
       inkscape:label="Drop Shadow"
       id="filter257-8"
       x="-0.013670984"
       y="-0.025077645"
       width="1.0337562"
       height="1.0626861"><feFlood
         result="flood"
         in="SourceGraphic"
         flood-opacity="1.000000"
         flood-color="rgb(0,0,0)"
         id="feFlood256-9" /><feGaussianBlur
         result="blur"
         in="SourceGraphic"
         stdDeviation="10.683372"
         id="feGaussianBlur256-7" /><feOffset
         result="offset"
         in="blur"
         dx="12.030010"
         dy="12.811828"
         id="feOffset256-3" /><feComposite
         result="comp1"
         operator="in"
         in="flood"
         in2="offset"
         id="feComposite256-6" /><feComposite
         result="comp2"
         operator="over"
         in="SourceGraphic"
         in2="comp1"
         id="feComposite257-1" /></filter></defs><rect
     style="fill:#2f9e41;fill-opacity:1;stroke-width:0;stroke-miterlimit:1.4"
     id="rect10"
     width="1920"
     height="130"
     x="0"
     y="0" /><g
     id="g2"
     transform="matrix(4.8600368,0,0,4.8600368,95.705478,220.42208)"><path
       id="path2"
       d="m 0,0 c 0,-0.28 -0.302,-0.506 -0.67,-0.506 h -144.907 c -0.371,0 -0.671,0.226 -0.671,0.506 0,0.28 0.3,0.509 0.671,0.509 H -0.67 C -0.302,0.509 0,0.28 0,0"
       style="fill:#37a033;fill-opacity:1;fill-rule:nonzero;stroke:none"
       transform="matrix(0.46296296,0,0,-0.46296296,88.987547,92.474677)"
       clip-path="url(#clipPath3)" /><path
       id="path4"
       d="m 0,0 c 0,-1.178 -0.428,-2.096 -1.284,-2.755 -0.856,-0.659 -2.017,-0.988 -3.485,-0.988 -1.589,0 -2.812,0.204 -3.667,0.613 v 1.501 c 0.55,-0.232 1.149,-0.415 1.797,-0.55 0.648,-0.134 1.29,-0.201 1.926,-0.201 1.039,0 1.821,0.197 2.347,0.591 0.526,0.393 0.789,0.941 0.789,1.643 0,0.463 -0.093,0.843 -0.28,1.139 -0.187,0.296 -0.498,0.569 -0.935,0.819 -0.437,0.251 -1.102,0.535 -1.995,0.852 -1.247,0.445 -2.138,0.974 -2.673,1.584 -0.535,0.609 -0.802,1.406 -0.802,2.389 0,1.031 0.388,1.852 1.164,2.463 0.777,0.609 1.804,0.915 3.081,0.915 1.333,0 2.559,-0.245 3.678,-0.733 L -0.825,7.928 c -1.107,0.464 -2.183,0.695 -3.228,0.695 -0.825,0 -1.47,-0.177 -1.935,-0.53 -0.465,-0.355 -0.697,-0.846 -0.697,-1.475 0,-0.464 0.086,-0.844 0.257,-1.139 0.171,-0.296 0.46,-0.568 0.867,-0.815 0.406,-0.247 1.028,-0.52 1.866,-0.819 1.405,-0.5 2.373,-1.037 2.901,-1.612 C -0.265,1.66 0,0.916 0,0"
       style="fill:#231f20;fill-opacity:1;fill-rule:nonzero;stroke:none"
       transform="matrix(0.46296296,0,0,-0.46296296,39.502732,85.980094)"
       clip-path="url(#clipPath5-5)" /><path
       id="path6"
       d="m 0,0 c 0.948,0 1.692,0.259 2.233,0.777 0.541,0.52 0.811,1.246 0.811,2.179 V 3.862 L 1.522,3.799 C 0.312,3.756 -0.561,3.568 -1.096,3.235 -1.631,2.903 -1.898,2.386 -1.898,1.684 c 0,-0.549 0.166,-0.967 0.5,-1.254 C -1.065,0.143 -0.599,0 0,0 m 2.256,10.307 c -0.263,0 -0.52,0.056 -0.77,0.17 -0.251,0.112 -0.497,0.237 -0.739,0.375 -0.241,0.137 -0.474,0.262 -0.696,0.375 -0.224,0.113 -0.439,0.169 -0.647,0.169 -0.306,0 -0.536,-0.091 -0.692,-0.274 -0.156,-0.183 -0.277,-0.461 -0.362,-0.833 h -0.899 c 0.079,0.738 0.295,1.316 0.647,1.734 0.351,0.418 0.805,0.627 1.361,0.627 0.281,0 0.553,-0.056 0.816,-0.168 0.263,-0.114 0.514,-0.239 0.752,-0.377 0.239,-0.136 0.468,-0.262 0.688,-0.375 0.22,-0.113 0.428,-0.168 0.623,-0.168 0.3,0 0.523,0.089 0.67,0.269 0.146,0.18 0.266,0.459 0.357,0.838 H 4.273 C 4.194,11.931 3.981,11.352 3.636,10.934 3.29,10.516 2.831,10.307 2.256,10.307 M 3.439,-1.071 3.136,0.357 H 3.063 C 2.561,-0.271 2.061,-0.697 1.563,-0.92 1.065,-1.143 0.443,-1.254 -0.302,-1.254 c -0.997,0 -1.778,0.256 -2.344,0.769 -0.565,0.512 -0.848,1.241 -0.848,2.187 0,2.027 1.623,3.088 4.869,3.186 L 3.081,4.942 V 5.566 C 3.081,6.353 2.912,6.934 2.572,7.309 2.233,7.685 1.69,7.872 0.945,7.872 0.107,7.872 -0.84,7.616 -1.898,7.104 l -0.468,1.162 c 0.495,0.268 1.038,0.479 1.628,0.632 0.59,0.152 1.181,0.228 1.774,0.228 C 2.234,9.126 3.122,8.86 3.7,8.33 4.278,7.799 4.567,6.947 4.567,5.775 v -6.846 z"
       style="fill:#231f20;fill-opacity:1;fill-rule:nonzero;stroke:none"
       transform="matrix(0.46296296,0,0,-0.46296296,41.935095,87.132545)"
       clip-path="url(#clipPath7)" /><path
       id="path8"
       d="m 0,0 c 0,-1.281 0.257,-2.258 0.77,-2.929 0.514,-0.672 1.269,-1.008 2.265,-1.008 0.996,0 1.753,0.335 2.27,1.003 C 5.821,-2.266 6.08,-1.288 6.08,0 6.08,1.275 5.821,2.244 5.305,2.906 4.788,3.568 4.025,3.899 3.017,3.899 2.02,3.899 1.268,3.573 0.761,2.92 0.253,2.268 0,1.294 0,0 m 7.657,0 c 0,-1.636 -0.413,-2.912 -1.239,-3.831 -0.825,-0.918 -1.965,-1.377 -3.419,-1.377 -0.899,0 -1.697,0.21 -2.394,0.631 -0.697,0.421 -1.235,1.025 -1.614,1.812 -0.379,0.787 -0.568,1.709 -0.568,2.765 0,1.636 0.409,2.909 1.228,3.822 0.82,0.912 1.956,1.368 3.412,1.368 1.406,0 2.522,-0.466 3.351,-1.4 C 7.242,2.856 7.657,1.593 7.657,0"
       style="fill:#231f20;fill-opacity:1;fill-rule:nonzero;stroke:none"
       transform="matrix(0.46296296,0,0,-0.46296296,45.972456,85.301899)"
       clip-path="url(#clipPath9)" /><path
       id="path10"
       d="M 0,0 H 1.403 C 2.785,0 3.784,0.223 4.401,0.669 5.019,1.114 5.328,1.828 5.328,2.811 5.328,3.695 5.037,4.355 4.456,4.788 3.876,5.221 2.971,5.437 1.742,5.437 H 0 Z M 6.941,2.884 C 6.941,1.529 6.479,0.487 5.552,-0.242 4.626,-0.972 3.301,-1.336 1.577,-1.336 H 0 V -6.6 H -1.559 V 6.783 h 3.475 c 3.351,0 5.025,-1.3 5.025,-3.899"
       style="fill:#231f20;fill-opacity:1;fill-rule:nonzero;stroke:none"
       transform="matrix(0.46296296,0,0,-0.46296296,53.838751,84.573101)"
       clip-path="url(#clipPath11)" /><path
       id="path12"
       d="m 0,0 c 0.948,0 1.692,0.259 2.233,0.777 0.541,0.52 0.811,1.246 0.811,2.179 V 3.862 L 1.522,3.799 C 0.312,3.756 -0.561,3.568 -1.096,3.235 -1.631,2.903 -1.898,2.386 -1.898,1.684 c 0,-0.549 0.167,-0.967 0.5,-1.254 C -1.065,0.143 -0.599,0 0,0 M 3.439,-1.071 3.136,0.357 H 3.063 C 2.562,-0.271 2.062,-0.697 1.563,-0.92 1.065,-1.143 0.443,-1.254 -0.302,-1.254 c -0.997,0 -1.778,0.256 -2.343,0.769 -0.566,0.512 -0.849,1.241 -0.849,2.187 0,2.027 1.623,3.088 4.87,3.186 L 3.081,4.942 V 5.566 C 3.081,6.353 2.912,6.934 2.572,7.309 2.233,7.685 1.69,7.872 0.945,7.872 0.107,7.872 -0.84,7.616 -1.898,7.104 l -0.468,1.162 c 0.495,0.268 1.038,0.479 1.628,0.632 0.59,0.152 1.181,0.228 1.774,0.228 C 2.234,9.126 3.123,8.86 3.7,8.33 4.278,7.799 4.567,6.947 4.567,5.775 v -6.846 z"
       style="fill:#231f20;fill-opacity:1;fill-rule:nonzero;stroke:none"
       transform="matrix(0.46296296,0,0,-0.46296296,59.514585,87.132545)"
       clip-path="url(#clipPath13)" /><path
       id="path14"
       d="m 0,0 v -6.508 c 0,-0.818 0.186,-1.428 0.559,-1.831 0.373,-0.402 0.957,-0.604 1.752,-0.604 1.051,0 1.82,0.287 2.306,0.861 0.486,0.573 0.729,1.51 0.729,2.81 V 0 H 6.868 V -10.032 H 5.612 l -0.22,1.346 H 5.309 C 4.997,-9.181 4.565,-9.56 4.012,-9.821 c -0.554,-0.263 -1.185,-0.394 -1.894,-0.394 -1.223,0 -2.138,0.289 -2.747,0.869 -0.607,0.58 -0.912,1.507 -0.912,2.784 V 0 Z"
       style="fill:#231f20;fill-opacity:1;fill-rule:nonzero;stroke:none"
       transform="matrix(0.46296296,0,0,-0.46296296,63.742963,82.983934)"
       clip-path="url(#clipPath15)" /><path
       id="path16"
       d="m 138.503,71.523 h -1.522 v 14.243 h 1.522 z"
       style="fill:#231f20;fill-opacity:1;fill-rule:nonzero;stroke:none"
       transform="matrix(0.46296296,0,0,-0.46296296,5,120.74074)"
       clip-path="url(#clipPath17)" /><path
       id="path18"
       d="m 0,0 c 0,-1.281 0.258,-2.258 0.771,-2.929 0.512,-0.672 1.268,-1.008 2.264,-1.008 0.996,0 1.754,0.335 2.27,1.003 C 5.822,-2.266 6.08,-1.288 6.08,0 6.08,1.275 5.822,2.244 5.305,2.906 4.789,3.568 4.025,3.899 3.018,3.899 2.021,3.899 1.27,3.573 0.762,2.92 0.254,2.268 0,1.294 0,0 m 7.656,0 c 0,-1.636 -0.412,-2.912 -1.236,-3.831 -0.826,-0.918 -1.967,-1.377 -3.422,-1.377 -0.898,0 -1.695,0.21 -2.393,0.631 -0.697,0.421 -1.234,1.025 -1.613,1.812 -0.379,0.787 -0.569,1.709 -0.569,2.765 0,1.636 0.41,2.909 1.229,3.822 0.819,0.912 1.955,1.368 3.41,1.368 1.407,0 2.524,-0.466 3.352,-1.4 C 7.242,2.856 7.656,1.593 7.656,0"
       style="fill:#231f20;fill-opacity:1;fill-rule:nonzero;stroke:none"
       transform="matrix(0.46296296,0,0,-0.46296296,71.08704,85.301899)"
       clip-path="url(#clipPath19)" /><path
       id="path20"
       d="m 0,0 c 0,-0.961 -0.775,-1.735 -1.733,-1.735 h -14.358 c -0.959,0 -1.733,0.774 -1.733,1.735 v 14.355 c 0,0.958 0.774,1.736 1.733,1.736 H -1.733 C -0.775,16.091 0,15.313 0,14.355 Z"
       style="fill:#37a033;fill-opacity:1;fill-rule:nonzero;stroke:none"
       transform="matrix(0.46296296,0,0,-0.46296296,59.260046,23.287036)"
       clip-path="url(#clipPath21)" /><path
       id="path22"
       d="m 0,0 c 0,-0.961 -0.775,-1.735 -1.732,-1.735 h -14.359 c -0.958,0 -1.735,0.774 -1.735,1.735 v 14.355 c 0,0.958 0.777,1.736 1.735,1.736 H -1.732 C -0.775,16.091 0,15.313 0,14.355 Z"
       style="fill:#37a033;fill-opacity:1;fill-rule:nonzero;stroke:none"
       transform="matrix(0.46296296,0,0,-0.46296296,69.162873,23.287036)"
       clip-path="url(#clipPath23)" /><path
       id="path24"
       d="m 0,0 c 0,-0.96 -0.775,-1.735 -1.732,-1.735 h -14.359 c -0.958,0 -1.735,0.775 -1.735,1.735 v 14.355 c 0,0.96 0.777,1.735 1.735,1.735 H -1.732 C -0.775,16.09 0,15.315 0,14.355 Z"
       style="fill:#37a033;fill-opacity:1;fill-rule:nonzero;stroke:none"
       transform="matrix(0.46296296,0,0,-0.46296296,69.162873,43.09361)"
       clip-path="url(#clipPath25)" /><path
       id="path26"
       d="m 0,0 c 0,-0.962 -0.775,-1.737 -1.733,-1.737 h -14.356 c -0.961,0 -1.735,0.775 -1.735,1.737 v 14.352 c 0,0.959 0.774,1.735 1.735,1.735 H -1.733 C -0.775,16.087 0,15.311 0,14.352 Z"
       style="fill:#37a033;fill-opacity:1;fill-rule:nonzero;stroke:none"
       transform="matrix(0.46296296,0,0,-0.46296296,49.356296,33.183332)"
       clip-path="url(#clipPath27)" /><path
       id="path28"
       d="m 0,0 c 0,-0.962 -0.775,-1.737 -1.733,-1.737 h -14.358 c -0.959,0 -1.733,0.775 -1.733,1.737 v 14.352 c 0,0.959 0.774,1.735 1.733,1.735 H -1.733 C -0.775,16.087 0,15.311 0,14.352 Z"
       style="fill:#37a033;fill-opacity:1;fill-rule:nonzero;stroke:none"
       transform="matrix(0.46296296,0,0,-0.46296296,59.260046,33.183332)"
       clip-path="url(#clipPath29)" /><path
       id="path30"
       d="m 0,0 c 0,-0.96 -0.775,-1.735 -1.733,-1.735 h -14.356 c -0.961,0 -1.735,0.775 -1.735,1.735 v 14.355 c 0,0.96 0.774,1.735 1.735,1.735 H -1.733 C -0.775,16.09 0,15.315 0,14.355 Z"
       style="fill:#37a033;fill-opacity:1;fill-rule:nonzero;stroke:none"
       transform="matrix(0.46296296,0,0,-0.46296296,49.356296,43.09361)"
       clip-path="url(#clipPath31)" /><path
       id="path32"
       d="m 0,0 c 0,-0.96 -0.775,-1.735 -1.733,-1.735 h -14.358 c -0.959,0 -1.733,0.775 -1.733,1.735 v 14.355 c 0,0.96 0.774,1.735 1.733,1.735 H -1.733 C -0.775,16.09 0,15.315 0,14.355 Z"
       style="fill:#37a033;fill-opacity:1;fill-rule:nonzero;stroke:none"
       transform="matrix(0.46296296,0,0,-0.46296296,59.260046,43.09361)"
       clip-path="url(#clipPath33)" /><path
       id="path34"
       d="m 0,0 c 0,-0.961 -0.775,-1.734 -1.733,-1.734 h -14.356 c -0.961,0 -1.735,0.773 -1.735,1.734 v 14.353 c 0,0.959 0.774,1.734 1.735,1.734 H -1.733 C -0.775,16.087 0,15.312 0,14.353 Z"
       style="fill:#37a033;fill-opacity:1;fill-rule:nonzero;stroke:none"
       transform="matrix(0.46296296,0,0,-0.46296296,49.356296,53.006621)"
       clip-path="url(#clipPath35)" /><path
       id="path36"
       d="m 0,0 c 0,-0.961 -0.775,-1.734 -1.733,-1.734 h -14.358 c -0.959,0 -1.733,0.773 -1.733,1.734 v 14.353 c 0,0.959 0.774,1.734 1.733,1.734 H -1.733 C -0.775,16.087 0,15.312 0,14.353 Z"
       style="fill:#37a033;fill-opacity:1;fill-rule:nonzero;stroke:none"
       transform="matrix(0.46296296,0,0,-0.46296296,59.260046,53.006621)"
       clip-path="url(#clipPath37)" /><path
       id="path38"
       d="m 0,0 c 0,-5.416 -4.387,-9.806 -9.803,-9.806 -5.413,0 -9.803,4.39 -9.803,9.806 0,5.418 4.39,9.805 9.803,9.805 C -4.387,9.805 0,5.418 0,0"
       style="fill:#cf181f;fill-opacity:1;fill-rule:nonzero;stroke:none"
       transform="matrix(0.46296296,0,0,-0.46296296,49.768612,19.964026)"
       clip-path="url(#clipPath39)" /><path
       id="path40"
       d="m 43.72,132.1 h 3.767 V 114.365 H 43.72 Z"
       style="fill:#231f20;fill-opacity:1;fill-rule:nonzero;stroke:none"
       transform="matrix(0.46296296,0,0,-0.46296296,5,120.74074)"
       clip-path="url(#clipPath41)" /><path
       id="path42"
       d="m 0,0 h -4.788 l -7.728,13.416 h -0.109 c 0.153,-2.369 0.23,-4.06 0.23,-5.07 V 0 h -3.366 v 17.735 h 4.752 L -3.293,4.452 h 0.085 C -3.329,6.757 -3.39,8.386 -3.39,9.341 v 8.394 H 0 Z"
       style="fill:#231f20;fill-opacity:1;fill-rule:nonzero;stroke:none"
       transform="matrix(0.46296296,0,0,-0.46296296,36.36301,67.794305)"
       clip-path="url(#clipPath43)" /><path
       id="path44"
       d="m 0,0 c 0,-1.601 -0.577,-2.862 -1.731,-3.784 -1.155,-0.922 -2.761,-1.383 -4.819,-1.383 -1.895,0 -3.572,0.355 -5.031,1.067 v 3.493 c 1.2,-0.533 2.214,-0.91 3.044,-1.127 0.831,-0.219 1.59,-0.328 2.279,-0.328 0.826,0 1.46,0.158 1.902,0.473 0.441,0.316 0.662,0.784 0.662,1.407 0,0.348 -0.097,0.657 -0.292,0.928 -0.194,0.271 -0.48,0.532 -0.856,0.782 -0.377,0.251 -1.145,0.652 -2.303,1.201 -1.086,0.51 -1.9,1 -2.442,1.468 -0.543,0.469 -0.977,1.015 -1.301,1.638 -0.324,0.623 -0.486,1.35 -0.486,2.183 0,1.569 0.533,2.802 1.598,3.701 1.065,0.897 2.538,1.345 4.417,1.345 0.924,0 1.805,-0.108 2.643,-0.327 0.839,-0.219 1.716,-0.525 2.631,-0.922 L -1.3,8.892 c -0.948,0.388 -1.732,0.659 -2.351,0.813 -0.62,0.153 -1.23,0.23 -1.829,0.23 -0.713,0 -1.26,-0.166 -1.641,-0.498 -0.38,-0.331 -0.571,-0.763 -0.571,-1.297 0,-0.331 0.077,-0.621 0.231,-0.868 C -7.307,7.025 -7.062,6.787 -6.725,6.557 -6.39,6.326 -5.594,5.912 -4.338,5.313 -2.677,4.52 -1.539,3.727 -0.923,2.93 -0.308,2.133 0,1.156 0,0"
       style="fill:#231f20;fill-opacity:1;fill-rule:nonzero;stroke:none"
       transform="matrix(0.46296296,0,0,-0.46296296,43.311296,65.514305)"
       clip-path="url(#clipPath45)" /><path
       id="path46"
       d="m 0,0 h -3.767 v 14.605 h -4.824 v 3.13 H 4.824 v -3.13 H 0 Z"
       style="fill:#231f20;fill-opacity:1;fill-rule:nonzero;stroke:none"
       transform="matrix(0.46296296,0,0,-0.46296296,48.000418,67.794305)"
       clip-path="url(#clipPath47)" /><path
       id="path48"
       d="m 100.439,132.1 h 3.767 v -17.735 h -3.767 z"
       style="fill:#231f20;fill-opacity:1;fill-rule:nonzero;stroke:none"
       transform="matrix(0.46296296,0,0,-0.46296296,5,120.74074)"
       clip-path="url(#clipPath49)" /><path
       id="path50"
       d="m 0,0 h -3.767 v 14.605 h -4.824 v 3.13 H 4.824 v -3.13 H 0 Z"
       style="fill:#231f20;fill-opacity:1;fill-rule:nonzero;stroke:none"
       transform="matrix(0.46296296,0,0,-0.46296296,58.486713,67.794305)"
       clip-path="url(#clipPath51)" /><path
       id="path52"
       d="m 0,0 v -11.476 c 0,-1.31 -0.293,-2.459 -0.881,-3.445 -0.587,-0.987 -1.436,-1.743 -2.546,-2.268 -1.11,-0.526 -2.422,-0.788 -3.937,-0.788 -2.284,0 -4.058,0.584 -5.322,1.752 -1.264,1.168 -1.896,2.768 -1.896,4.797 V 0 h 3.755 v -10.857 c 0,-1.367 0.275,-2.37 0.827,-3.008 0.55,-0.64 1.462,-0.959 2.733,-0.959 1.232,0 2.125,0.321 2.68,0.965 0.555,0.642 0.832,1.651 0.832,3.026 V 0 Z"
       style="fill:#231f20;fill-opacity:1;fill-rule:nonzero;stroke:none"
       transform="matrix(0.46296296,0,0,-0.46296296,68.712779,59.583517)"
       clip-path="url(#clipPath53)" /><path
       id="path54"
       d="m 0,0 h -3.768 v 14.605 h -4.824 v 3.13 H 4.824 v -3.13 H 0 Z"
       style="fill:#231f20;fill-opacity:1;fill-rule:nonzero;stroke:none"
       transform="matrix(0.46296296,0,0,-0.46296296,73.92454,67.794305)"
       clip-path="url(#clipPath55)" /><path
       id="path56"
       d="m 0,0 c 0,-1.982 0.377,-3.474 1.13,-4.477 0.754,-1.002 1.879,-1.503 3.378,-1.503 3.006,0 4.509,1.993 4.509,5.98 0,3.995 -1.496,5.992 -4.485,5.992 -1.499,0 -2.629,-0.503 -3.39,-1.51 C 0.381,3.475 0,1.981 0,0 m 12.966,0 c 0,-2.936 -0.73,-5.191 -2.188,-6.769 -1.458,-1.577 -3.548,-2.365 -6.27,-2.365 -2.722,0 -4.812,0.788 -6.27,2.365 -1.459,1.578 -2.187,3.841 -2.187,6.793 0,2.951 0.73,5.206 2.193,6.763 1.462,1.557 3.559,2.335 6.288,2.335 2.731,0 4.819,-0.784 6.265,-2.354 C 12.242,5.2 12.966,2.943 12.966,0"
       style="fill:#231f20;fill-opacity:1;fill-rule:nonzero;stroke:none"
       transform="matrix(0.46296296,0,0,-0.46296296,78.896391,63.677823)"
       clip-path="url(#clipPath57)" /><path
       id="path58"
       d="M 0,0 H -3.707 V 17.735 H 6.477 V 14.653 H 0 V 10.08 H 6.027 V 7.012 H 0 Z"
       style="fill:#231f20;fill-opacity:1;fill-rule:nonzero;stroke:none"
       transform="matrix(0.46296296,0,0,-0.46296296,32.683519,77.662594)"
       clip-path="url(#clipPath59)" /><path
       id="path60"
       d="M 0,0 H -10.232 V 17.735 H 0 V 14.653 H -6.465 V 10.76 H -0.45 V 7.679 H -6.465 V 3.105 H 0 Z"
       style="fill:#231f20;fill-opacity:1;fill-rule:nonzero;stroke:none"
       transform="matrix(0.46296296,0,0,-0.46296296,42.052178,77.662594)"
       clip-path="url(#clipPath61)" /><path
       id="path62"
       d="M 0,0 C 0,3.809 -1.685,5.713 -5.055,5.713 H -7.06 V -5.835 h 1.616 C -1.815,-5.835 0,-3.891 0,0 m 3.913,0.097 c 0,-2.919 -0.832,-5.156 -2.497,-6.708 -1.665,-1.553 -4.069,-2.33 -7.212,-2.33 h -5.031 V 8.795 h 5.578 C -2.35,8.795 -0.097,8.03 1.507,6.502 3.111,4.974 3.913,2.838 3.913,0.097"
       style="fill:#231f20;fill-opacity:1;fill-rule:nonzero;stroke:none"
       transform="matrix(0.46296296,0,0,-0.46296296,48.780511,73.523472)"
       clip-path="url(#clipPath63)" /><path
       id="path64"
       d="M 0,0 H -10.232 V 17.735 H 0 V 14.653 H -6.465 V 10.76 H -0.45 V 7.679 H -6.465 V 3.105 H 0 Z"
       style="fill:#231f20;fill-opacity:1;fill-rule:nonzero;stroke:none"
       transform="matrix(0.46296296,0,0,-0.46296296,57.033612,77.662594)"
       clip-path="url(#clipPath65)" /><path
       id="path66"
       d="m 0,0 h 1.215 c 1.191,0 2.07,0.198 2.637,0.594 0.567,0.396 0.851,1.019 0.851,1.868 0,0.842 -0.29,1.439 -0.869,1.796 C 3.254,4.613 2.357,4.791 1.142,4.791 H 0 Z M 0,-3.057 V -9.862 H -3.767 V 7.873 H 1.41 c 2.414,0 4.2,-0.439 5.359,-1.316 C 7.927,5.679 8.506,4.347 8.506,2.56 8.506,1.517 8.218,0.588 7.644,-0.225 7.068,-1.037 6.254,-1.674 5.201,-2.135 7.874,-6.122 9.616,-8.698 10.426,-9.862 h -4.18 l -4.241,6.805 z"
       style="fill:#231f20;fill-opacity:1;fill-rule:nonzero;stroke:none"
       transform="matrix(0.46296296,0,0,-0.46296296,60.49338,73.096712)"
       clip-path="url(#clipPath67)" /><path
       id="path68"
       d="M 0,0 C -1.191,3.825 -1.861,5.988 -2.011,6.49 -2.161,6.991 -2.269,7.388 -2.333,7.679 -2.601,6.644 -3.366,4.084 -4.63,0 Z m 2.188,-7.375 -1.289,4.222 h -6.477 l -1.288,-4.222 h -4.058 l 6.27,17.808 h 4.606 L 6.246,-7.375 Z"
       style="fill:#231f20;fill-opacity:1;fill-rule:nonzero;stroke:none"
       transform="matrix(0.46296296,0,0,-0.46296296,70.418845,74.248239)"
       clip-path="url(#clipPath69)" /><path
       id="path70"
       d="M 0,0 V 17.735 H 3.767 V 3.105 h 7.206 V 0 Z"
       style="fill:#231f20;fill-opacity:1;fill-rule:nonzero;stroke:none"
       transform="matrix(0.46296296,0,0,-0.46296296,74.369401,77.662594)"
       clip-path="url(#clipPath71)" /><path
       id="path72"
       d="m 0,0 c -1.474,0 -2.636,-0.489 -3.489,-1.469 -0.853,-0.979 -1.279,-2.32 -1.279,-4.023 0,-1.752 0.411,-3.105 1.233,-4.06 0.822,-0.955 1.995,-1.432 3.517,-1.432 0.935,0 2.001,0.168 3.2,0.503 v -1.364 c -0.929,-0.347 -2.075,-0.521 -3.439,-0.521 -1.974,0 -3.498,0.598 -4.571,1.794 -1.073,1.195 -1.609,2.895 -1.609,5.098 0,1.379 0.258,2.587 0.774,3.625 0.517,1.038 1.263,1.837 2.238,2.399 0.975,0.56 2.123,0.842 3.443,0.842 1.406,0 2.635,-0.256 3.687,-0.769 L 3.044,-0.714 C 2.029,-0.238 1.015,0 0,0"
       style="fill:#231f20;fill-opacity:1;fill-rule:nonzero;stroke:none"
       transform="matrix(0.46296296,0,0,-0.46296296,42.034306,96.5419)"
       clip-path="url(#clipPath73)" /><path
       id="path74"
       d="m 0,0 c 0.948,0 1.692,0.259 2.233,0.777 0.541,0.52 0.811,1.246 0.811,2.179 V 3.862 L 1.522,3.799 C 0.312,3.756 -0.561,3.568 -1.096,3.235 -1.631,2.903 -1.898,2.386 -1.898,1.684 c 0,-0.549 0.166,-0.967 0.5,-1.254 C -1.065,0.143 -0.599,0 0,0 M 3.439,-1.071 3.136,0.357 H 3.063 C 2.561,-0.271 2.061,-0.697 1.563,-0.92 1.065,-1.143 0.443,-1.254 -0.302,-1.254 c -0.997,0 -1.778,0.256 -2.344,0.769 -0.565,0.512 -0.848,1.241 -0.848,2.187 0,2.027 1.623,3.088 4.87,3.186 L 3.081,4.942 V 5.566 C 3.081,6.353 2.912,6.934 2.572,7.309 2.233,7.685 1.69,7.872 0.945,7.872 0.107,7.872 -0.84,7.616 -1.898,7.104 l -0.468,1.162 c 0.495,0.268 1.038,0.479 1.628,0.632 0.59,0.152 1.181,0.228 1.774,0.228 C 2.234,9.126 3.122,8.86 3.7,8.33 4.278,7.799 4.567,6.947 4.567,5.775 v -6.846 z"
       style="fill:#231f20;fill-opacity:1;fill-rule:nonzero;stroke:none"
       transform="matrix(0.46296296,0,0,-0.46296296,46.024678,101.68648)"
       clip-path="url(#clipPath75)" /><path
       id="path76"
       d="m 0,0 v 6.526 c 0,0.8 -0.171,1.4 -0.513,1.799 -0.343,0.4 -0.875,0.6 -1.596,0.6 -0.948,0 -1.647,-0.272 -2.1,-0.815 C -4.661,7.567 -4.887,6.731 -4.887,5.603 V 0 H -6.41 v 6.526 c 0,0.8 -0.171,1.4 -0.513,1.799 -0.343,0.4 -0.877,0.6 -1.605,0.6 -0.954,0 -1.652,-0.285 -2.095,-0.856 -0.443,-0.571 -0.665,-1.506 -0.665,-2.805 V 0 h -1.522 v 10.032 h 1.238 l 0.247,-1.373 h 0.074 c 0.287,0.488 0.692,0.87 1.215,1.145 0.522,0.274 1.108,0.412 1.756,0.412 1.571,0 2.598,-0.568 3.081,-1.703 h 0.073 c 0.3,0.525 0.734,0.94 1.302,1.245 0.569,0.305 1.217,0.458 1.944,0.458 1.137,0 1.988,-0.292 2.554,-0.874 C 1.239,8.759 1.522,7.826 1.522,6.545 V 0 Z"
       style="fill:#231f20;fill-opacity:1;fill-rule:nonzero;stroke:none"
       transform="matrix(0.46296296,0,0,-0.46296296,55.521296,102.18246)"
       clip-path="url(#clipPath77)" /><path
       id="path78"
       d="m 0,0 c -1.027,0 -1.77,-0.283 -2.228,-0.852 -0.458,-0.567 -0.694,-1.47 -0.706,-2.709 v -0.338 c 0,-1.41 0.235,-2.418 0.706,-3.026 0.471,-0.607 1.226,-0.911 2.265,-0.911 0.868,0 1.548,0.352 2.04,1.053 0.492,0.702 0.738,1.669 0.738,2.902 0,1.251 -0.246,2.211 -0.738,2.879 C 1.585,-0.334 0.893,0 0,0 m 0.22,-9.107 c -0.654,0 -1.252,0.12 -1.793,0.361 -0.541,0.241 -0.994,0.611 -1.361,1.112 h -0.11 c 0.073,-0.586 0.11,-1.141 0.11,-1.666 v -4.129 H -4.456 V 1.107 h 1.237 l 0.211,-1.373 h 0.074 c 0.391,0.55 0.846,0.947 1.366,1.191 0.52,0.244 1.115,0.366 1.788,0.366 1.333,0 2.362,-0.455 3.086,-1.364 0.724,-0.909 1.086,-2.185 1.086,-3.826 0,-1.648 -0.368,-2.928 -1.104,-3.84 C 2.551,-8.651 1.528,-9.107 0.22,-9.107"
       style="fill:#231f20;fill-opacity:1;fill-rule:nonzero;stroke:none"
       transform="matrix(0.46296296,0,0,-0.46296296,59.741067,98.050601)"
       clip-path="url(#clipPath79)" /><path
       id="path80"
       d="m 0,0 v -6.508 c 0,-0.818 0.187,-1.428 0.559,-1.831 0.373,-0.402 0.957,-0.604 1.752,-0.604 1.051,0 1.82,0.287 2.306,0.861 0.486,0.573 0.729,1.51 0.729,2.81 V 0 H 6.868 V -10.032 H 5.612 l -0.22,1.345 H 5.309 C 4.997,-9.181 4.565,-9.56 4.012,-9.821 c -0.554,-0.263 -1.185,-0.394 -1.894,-0.394 -1.222,0 -2.138,0.289 -2.746,0.869 -0.608,0.58 -0.913,1.507 -0.913,2.784 V 0 Z"
       style="fill:#231f20;fill-opacity:1;fill-rule:nonzero;stroke:none"
       transform="matrix(0.46296296,0,0,-0.46296296,63.667918,97.537872)"
       clip-path="url(#clipPath81)" /><path
       id="path82"
       d="m 0,0 c 0,-0.934 -0.348,-1.654 -1.045,-2.16 -0.697,-0.507 -1.675,-0.76 -2.934,-0.76 -1.333,0 -2.372,0.21 -3.118,0.631 v 1.41 c 0.483,-0.244 1.001,-0.436 1.554,-0.577 0.554,-0.141 1.087,-0.21 1.601,-0.21 0.794,0 1.406,0.126 1.834,0.38 0.427,0.253 0.642,0.639 0.642,1.157 0,0.391 -0.17,0.725 -0.51,1.003 -0.339,0.277 -1.001,0.606 -1.985,0.984 -0.935,0.348 -1.6,0.652 -1.994,0.911 -0.394,0.259 -0.688,0.553 -0.881,0.883 -0.192,0.33 -0.288,0.723 -0.288,1.181 0,0.817 0.333,1.463 0.999,1.936 0.666,0.473 1.58,0.71 2.742,0.71 1.082,0 2.139,-0.22 3.172,-0.66 L -0.752,5.584 c -1.008,0.414 -1.922,0.622 -2.741,0.622 -0.721,0 -1.265,-0.113 -1.632,-0.339 -0.367,-0.225 -0.55,-0.537 -0.55,-0.933 0,-0.269 0.068,-0.497 0.206,-0.687 0.137,-0.189 0.359,-0.369 0.665,-0.54 0.305,-0.171 0.892,-0.418 1.76,-0.741 1.192,-0.434 1.997,-0.87 2.417,-1.31 C -0.209,1.217 0,0.665 0,0"
       style="fill:#231f20;fill-opacity:1;fill-rule:nonzero;stroke:none"
       transform="matrix(0.46296296,0,0,-0.46296296,71.342963,100.91518)"
       clip-path="url(#clipPath83)" /><path
       id="path84"
       d="m 57.261,32.254 h 1.582 V 18.675 h -1.582 z"
       style="fill:#231f20;fill-opacity:1;fill-rule:nonzero;stroke:none"
       transform="matrix(0.46296296,0,0,-0.46296296,5,120.74074)"
       clip-path="url(#clipPath85)" /><path
       id="path86"
       d="m 0,0 c 0.273,0 0.536,0.02 0.791,0.061 0.254,0.04 0.456,0.082 0.604,0.125 v -1.18 C 1.228,-1.074 0.981,-1.141 0.656,-1.193 0.33,-1.246 0.037,-1.272 -0.223,-1.272 c -1.973,0 -2.959,1.037 -2.959,3.111 v 6.056 h -1.461 v 0.743 l 1.461,0.64 0.651,2.174 h 0.893 V 9.093 H 1.321 V 7.895 H -1.638 V 1.903 C -1.638,1.291 -1.492,0.82 -1.2,0.492 -0.909,0.164 -0.509,0 0,0"
       style="fill:#231f20;fill-opacity:1;fill-rule:nonzero;stroke:none"
       transform="matrix(0.46296296,0,0,-0.46296296,35.386482,111.59181)"
       clip-path="url(#clipPath87)" /><path
       id="path88"
       d="M 0,0 C 0.961,0 1.716,0.263 2.266,0.789 2.814,1.315 3.089,2.053 3.089,3 V 3.919 L 1.544,3.854 C 0.316,3.811 -0.569,3.62 -1.112,3.283 -1.655,2.945 -1.926,2.421 -1.926,1.709 -1.926,1.151 -1.757,0.728 -1.419,0.436 -1.081,0.145 -0.608,0 0,0 M 3.489,-1.087 3.182,0.362 H 3.107 C 2.599,-0.275 2.092,-0.708 1.586,-0.934 1.081,-1.159 0.45,-1.272 -0.307,-1.272 c -1.011,0 -1.804,0.259 -2.377,0.78 -0.574,0.519 -0.861,1.26 -0.861,2.22 0,2.055 1.647,3.132 4.941,3.232 l 1.73,0.056 v 0.63 c 0,0.799 -0.172,1.389 -0.516,1.77 -0.344,0.381 -0.895,0.571 -1.652,0.571 -0.85,0 -1.811,-0.259 -2.884,-0.78 L -2.4,8.387 c 0.502,0.272 1.052,0.486 1.651,0.64 C -0.15,9.183 0.45,9.26 1.051,9.26 2.267,9.26 3.168,8.99 3.754,8.452 4.34,7.913 4.633,7.049 4.633,5.86 v -6.947 z"
       style="fill:#231f20;fill-opacity:1;fill-rule:nonzero;stroke:none"
       transform="matrix(0.46296296,0,0,-0.46296296,38.263705,111.59181)"
       clip-path="url(#clipPath89)" /><path
       id="path90"
       d="m 0,0 c -1.042,0 -1.795,-0.288 -2.261,-0.863 -0.465,-0.576 -0.704,-1.493 -0.716,-2.75 v -0.344 c 0,-1.43 0.239,-2.453 0.716,-3.069 0.478,-0.617 1.244,-0.924 2.298,-0.924 0.881,0 1.571,0.355 2.07,1.068 0.5,0.712 0.75,1.694 0.75,2.944 0,1.269 -0.25,2.243 -0.75,2.921 C 1.608,-0.339 0.906,0 0,0 m 0.223,-9.241 c -0.663,0 -1.27,0.122 -1.819,0.366 -0.548,0.245 -1.009,0.621 -1.381,1.129 h -0.112 c 0.074,-0.595 0.112,-1.158 0.112,-1.691 v -4.188 H -4.521 V 1.124 h 1.255 l 0.214,-1.394 h 0.075 c 0.397,0.558 0.859,0.96 1.386,1.208 0.527,0.248 1.132,0.372 1.814,0.372 1.353,0 2.396,-0.461 3.131,-1.384 0.735,-0.923 1.103,-2.217 1.103,-3.883 0,-1.672 -0.374,-2.971 -1.121,-3.896 C 2.588,-8.778 1.551,-9.241 0.223,-9.241"
       style="fill:#231f20;fill-opacity:1;fill-rule:nonzero;stroke:none"
       transform="matrix(0.46296296,0,0,-0.46296296,43.975234,107.90255)"
       clip-path="url(#clipPath91)" /><path
       id="path92"
       d="m 0,0 c -0.818,0 -1.472,-0.267 -1.959,-0.799 -0.486,-0.532 -0.773,-1.269 -0.86,-2.21 h 5.331 c 0,0.972 -0.217,1.716 -0.651,2.234 C 1.427,-0.259 0.807,0 0,0 m 0.419,-9.26 c -1.507,0 -2.697,0.458 -3.568,1.374 -0.872,0.917 -1.308,2.19 -1.308,3.818 0,1.64 0.405,2.944 1.215,3.91 0.809,0.966 1.896,1.449 3.26,1.449 1.278,0 2.29,-0.42 3.034,-1.259 0.744,-0.839 1.116,-1.945 1.116,-3.32 v -0.975 h -7.024 c 0.031,-1.195 0.333,-2.102 0.907,-2.721 0.573,-0.62 1.382,-0.929 2.424,-0.929 1.098,0 2.183,0.228 3.256,0.687 V -8.601 C 3.185,-8.836 2.669,-9.005 2.182,-9.106 1.695,-9.209 1.107,-9.26 0.419,-9.26"
       style="fill:#231f20;fill-opacity:1;fill-rule:nonzero;stroke:none"
       transform="matrix(0.46296296,0,0,-0.46296296,49.087963,107.89398)"
       clip-path="url(#clipPath93)" /><path
       id="path94"
       d="m 0,0 c 0.273,0 0.536,0.02 0.791,0.061 0.254,0.04 0.456,0.082 0.604,0.125 v -1.18 C 1.228,-1.074 0.981,-1.141 0.656,-1.193 0.33,-1.246 0.037,-1.272 -0.223,-1.272 c -1.973,0 -2.959,1.037 -2.959,3.111 v 6.056 h -1.461 v 0.743 l 1.461,0.64 0.651,2.174 h 0.893 V 9.093 H 1.321 V 7.895 H -1.638 V 1.903 C -1.638,1.291 -1.492,0.82 -1.2,0.492 -0.909,0.164 -0.509,0 0,0"
       style="fill:#231f20;fill-opacity:1;fill-rule:nonzero;stroke:none"
       transform="matrix(0.46296296,0,0,-0.46296296,53.761668,111.59181)"
       clip-path="url(#clipPath95)" /><path
       id="path96"
       d="m 110.303,18.675 h -1.544 v 10.18 h 1.544 z m -1.675,12.938 c 0,0.353 0.087,0.612 0.26,0.776 0.174,0.164 0.391,0.246 0.652,0.246 0.248,0 0.461,-0.084 0.642,-0.251 0.179,-0.167 0.27,-0.424 0.27,-0.771 0,-0.347 -0.091,-0.605 -0.27,-0.776 -0.181,-0.17 -0.394,-0.255 -0.642,-0.255 -0.261,0 -0.478,0.085 -0.652,0.255 -0.173,0.171 -0.26,0.429 -0.26,0.776"
       style="fill:#231f20;fill-opacity:1;fill-rule:nonzero;stroke:none"
       transform="matrix(0.46296296,0,0,-0.46296296,5,120.74074)"
       clip-path="url(#clipPath97)" /><path
       id="path98"
       d="m 0,0 v 6.585 c 0,0.83 -0.189,1.449 -0.567,1.857 -0.379,0.41 -0.971,0.614 -1.777,0.614 -1.067,0 -1.849,-0.288 -2.345,-0.864 C -5.185,7.616 -5.433,6.665 -5.433,5.341 V 0 h -1.545 v 10.18 h 1.256 l 0.251,-1.394 h 0.075 c 0.316,0.502 0.76,0.891 1.331,1.166 0.57,0.275 1.206,0.413 1.907,0.413 1.228,0 2.152,-0.296 2.772,-0.886 C 1.234,8.887 1.545,7.941 1.545,6.641 V 0 Z"
       style="fill:#231f20;fill-opacity:1;fill-rule:nonzero;stroke:none"
       transform="matrix(0.46296296,0,0,-0.46296296,60.812595,112.095)"
       clip-path="url(#clipPath99)" /><path
       id="path100"
       d="m 126.817,18.675 h -1.544 v 10.18 h 1.544 z m -1.675,12.938 c 0,0.353 0.087,0.612 0.26,0.776 0.174,0.164 0.391,0.246 0.652,0.246 0.248,0 0.462,-0.084 0.642,-0.251 0.179,-0.167 0.27,-0.424 0.27,-0.771 0,-0.347 -0.091,-0.605 -0.27,-0.776 -0.18,-0.17 -0.394,-0.255 -0.642,-0.255 -0.261,0 -0.478,0.085 -0.652,0.255 -0.173,0.171 -0.26,0.429 -0.26,0.776"
       style="fill:#231f20;fill-opacity:1;fill-rule:nonzero;stroke:none"
       transform="matrix(0.46296296,0,0,-0.46296296,5,120.74074)"
       clip-path="url(#clipPath101)" /><path
       id="path102"
       d="m 0,0 v 6.585 c 0,0.83 -0.189,1.449 -0.567,1.857 -0.378,0.41 -0.971,0.614 -1.778,0.614 -1.066,0 -1.848,-0.288 -2.344,-0.864 C -5.185,7.616 -5.433,6.665 -5.433,5.341 V 0 h -1.544 v 10.18 h 1.255 l 0.251,-1.394 h 0.075 c 0.316,0.502 0.76,0.891 1.331,1.166 0.57,0.275 1.206,0.413 1.907,0.413 1.228,0 2.152,-0.296 2.772,-0.886 C 1.234,8.887 1.545,7.941 1.545,6.641 V 0 Z"
       style="fill:#231f20;fill-opacity:1;fill-rule:nonzero;stroke:none"
       transform="matrix(0.46296296,0,0,-0.46296296,68.458012,112.095)"
       clip-path="url(#clipPath103)" /><path
       id="path104"
       d="m 0,0 c 0,-0.713 0.202,-1.251 0.605,-1.616 0.403,-0.366 0.964,-0.548 1.684,-0.548 1.507,0 2.261,0.73 2.261,2.191 0,1.53 -0.763,2.294 -2.289,2.294 C 1.535,2.321 0.977,2.127 0.587,1.736 0.195,1.347 0,0.768 0,0 m -0.837,-8.629 c 0,-0.551 0.232,-0.969 0.697,-1.254 0.466,-0.285 1.133,-0.426 2.001,-0.426 1.296,0 2.256,0.193 2.88,0.58 0.623,0.386 0.935,0.912 0.935,1.574 0,0.551 -0.171,0.933 -0.512,1.147 -0.341,0.213 -0.983,0.321 -1.926,0.321 H 1.387 c -0.701,0 -1.247,-0.167 -1.638,-0.502 -0.391,-0.334 -0.586,-0.814 -0.586,-1.44 M 7.295,3.26 V 2.284 L 5.406,2.062 C 5.579,1.845 5.734,1.562 5.871,1.212 6.008,0.861 6.076,0.467 6.076,0.027 6.076,-0.97 5.734,-1.766 5.053,-2.359 4.37,-2.954 3.434,-3.251 2.242,-3.251 1.938,-3.251 1.653,-3.227 1.387,-3.177 0.729,-3.523 0.4,-3.96 0.4,-4.486 c 0,-0.279 0.115,-0.485 0.345,-0.618 0.229,-0.133 0.623,-0.2 1.182,-0.2 h 1.804 c 1.104,0 1.953,-0.232 2.545,-0.696 0.592,-0.465 0.888,-1.14 0.888,-2.025 0,-1.127 -0.452,-1.986 -1.358,-2.577 -0.906,-0.591 -2.227,-0.887 -3.963,-0.887 -1.334,0 -2.363,0.247 -3.085,0.743 -0.723,0.495 -1.083,1.194 -1.083,2.099 0,0.619 0.198,1.155 0.595,1.606 0.397,0.452 0.955,0.759 1.674,0.92 -0.26,0.117 -0.478,0.3 -0.655,0.548 -0.177,0.248 -0.266,0.535 -0.266,0.864 0,0.371 0.1,0.696 0.298,0.975 0.199,0.279 0.512,0.548 0.94,0.808 -0.528,0.217 -0.957,0.585 -1.288,1.105 -0.332,0.52 -0.498,1.115 -0.498,1.783 0,1.115 0.335,1.975 1.004,2.578 0.67,0.604 1.62,0.905 2.847,0.905 0.533,0 1.015,-0.061 1.442,-0.185 z"
       style="fill:#231f20;fill-opacity:1;fill-rule:nonzero;stroke:none"
       transform="matrix(0.46296296,0,0,-0.46296296,71.128658,108.89134)"
       clip-path="url(#clipPath105)" /><path
       id="path106"
       d="M 0,0 C 0.962,0 1.717,0.263 2.266,0.789 2.815,1.315 3.089,2.053 3.089,3 V 3.919 L 1.545,3.854 C 0.316,3.811 -0.568,3.62 -1.111,3.283 -1.654,2.945 -1.926,2.421 -1.926,1.709 -1.926,1.151 -1.757,0.728 -1.418,0.436 -1.08,0.145 -0.607,0 0,0 M 3.489,-1.087 3.183,0.362 H 3.108 C 2.6,-0.275 2.092,-0.708 1.587,-0.934 1.081,-1.159 0.45,-1.272 -0.307,-1.272 c -1.01,0 -1.803,0.259 -2.377,0.78 -0.574,0.519 -0.86,1.26 -0.86,2.22 0,2.055 1.647,3.132 4.94,3.232 l 1.731,0.056 v 0.63 c 0,0.799 -0.173,1.389 -0.517,1.77 -0.344,0.381 -0.894,0.571 -1.651,0.571 -0.851,0 -1.811,-0.259 -2.885,-0.78 L -2.4,8.387 c 0.503,0.272 1.052,0.486 1.651,0.64 C -0.15,9.183 0.45,9.26 1.052,9.26 2.268,9.26 3.168,8.99 3.755,8.452 4.341,7.913 4.634,7.049 4.634,5.86 v -6.947 z"
       style="fill:#231f20;fill-opacity:1;fill-rule:nonzero;stroke:none"
       transform="matrix(0.46296296,0,0,-0.46296296,76.762873,111.59181)"
       clip-path="url(#clipPath107)" /></g><rect
     style="fill:#cd191e;fill-opacity:1;stroke-width:0;stroke-miterlimit:1.4"
     id="rect1"
     width="1920"
     height="65"
     x="0"
     y="1015" /><rect
     style="opacity:0.600146;fill:url(#linearGradient210);fill-opacity:1;stroke-width:0;stroke-miterlimit:1.4;filter:url(#filter257-8)"
     id="rect209"
     width="1875.5118"
     height="1022.4282"
     x="20.195999"
     y="9.489501"
     transform="matrix(0.63457907,0,0,0.64780743,605.25185,208.70232)"
     clip-path="url(#clipPath259-2)" /></svg>
